<?xml version="1.0" encoding="utf-8"?>
<!-- Generator: Adobe Illustrator 21.0.2, SVG Export Plug-In . SVG Version: 6.00 Build 0)  -->
<svg version="1.1" id="Layer_1" xmlns="http://www.w3.org/2000/svg" xmlns:xlink="http://www.w3.org/1999/xlink" x="0px" y="0px"
     viewBox="0 0 251.3 60.4" style="enable-background:new 0 0 251.3 60.4;" xml:space="preserve">
	<style>*{fill:#ffffff}</style>
  <g>
	<path d="M12.3,37.5c2.5,0,4.7,0.9,6.5,2.7l2.1-2.1c-2.1-2.4-5.2-3.6-8.7-3.6c-7,0-12.2,5-12.2,11.8s5.2,11.8,12.2,11.8
		c3.6,0,6.7-1.2,8.8-3.6l-2.1-2.1c-1.8,1.9-3.9,2.8-6.5,2.8c-5.2,0-9-3.7-9-8.8S7.1,37.5,12.3,37.5z"/>
    <path d="M71.3,42.8c0-5-3.6-8-9.6-8h-9v23H56v-7h5.7c0.5,0,1,0,1.4-0.1l5,7.1h3.6l-5.5-7.7C69.5,48.9,71.3,46.4,71.3,42.8z
		 M61.6,48H56V37.7h5.6c4.2,0,6.4,1.9,6.4,5.2C68,46.1,65.8,48,61.6,48z"/>
    <polygon points="120.7,52 106.9,34.8 104.2,34.8 104.2,57.8 107.5,57.8 107.5,40.7 121.3,57.8 124,57.8 124,34.8 120.7,34.8 	"/>
    <path d="M137.8,34.8l-10.4,23h3.4l2.5-5.8h12.2l2.5,5.8h3.5l-10.4-23H137.8z M134.5,49.4l5-11.3l5,11.3H134.5z"/>
    <polygon points="162.8,55.6 153.5,34.8 151.7,34.8 162,57.8 163.6,57.8 173.9,34.8 172.1,34.8 	"/>
    <rect x="177.6" y="34.8" width="1.7" height="23"/>
    <path d="M204.8,42.6c0-4.9-3.5-7.8-9.3-7.8h-8.2v23h1.7v-7.5h6.6c0.8,0,1.5-0.1,2.2-0.2l5.5,7.7h1.9l-5.8-8.1
		C202.8,48.7,204.8,46.2,204.8,42.6z M195.5,48.8H189V36.3h6.6c4.9,0,7.6,2.3,7.6,6.2C203.1,46.5,200.5,48.8,195.5,48.8z"/>
    <path d="M227.5,48c0,5.8-2.7,8.4-7.5,8.4c-4.8,0-7.6-2.7-7.6-8.4V34.8h-1.7V48c0,6.6,3.5,9.9,9.2,9.9s9.2-3.4,9.2-9.9V34.8h-1.7V48
		z"/>
    <path d="M237,40.7c0-2.5,2-4.6,6.5-4.6c2.1,0,4.4,0.6,6.3,1.9l0.6-1.3c-1.8-1.3-4.4-2.1-6.9-2.1c-5.7,0-8.1,2.9-8.1,6.1
		c0,8.5,14.4,4.3,14.4,11.2c0,2.5-2,4.5-6.6,4.5c-3.1,0-6-1.2-7.6-2.9l-0.8,1.2c1.7,1.8,5,3.1,8.4,3.1c5.7,0,8.3-2.8,8.3-6.1
		C251.3,43.5,237,47.6,237,40.7z"/>
    <path d="M48,44c0.1,0.5,0.6,0.7,1,0.6c0.4-0.1,0.7-0.6,0.6-1l-0.5-1.7c-0.1-0.4-0.6-0.7-1-0.6c-0.4,0.1-0.7,0.6-0.6,1l0,0.1
		l-0.5,0.1c-0.5-1.5-1.3-2.9-2.3-4l0.4-0.4l0.1,0.1c0.3,0.3,0.8,0.3,1.2,0c0.3-0.3,0.3-0.8,0-1.2l-1.3-1.3c-0.3-0.3-0.8-0.3-1.2,0
		s-0.3,0.8,0,1.2l0.1,0.1l-0.4,0.4c-1.2-1-2.5-1.7-4.1-2.2l0.2-0.7l0.1,0c0.5,0.1,0.9-0.2,1-0.6c0.1-0.4-0.1-0.9-0.6-1l-1.7-0.5
		c-0.4-0.1-0.9,0.1-1,0.6c-0.1,0.4,0.1,0.9,0.6,1l0.1,0l-0.2,0.8c-0.8-0.1-1.6-0.2-2.4-0.2c-0.7,0-1.5,0.1-2.2,0.2L33.2,34l0.1,0
		c0.4-0.1,0.7-0.6,0.6-1c-0.1-0.4-0.6-0.7-1-0.6l-1.7,0.5c-0.4,0.1-0.7,0.6-0.6,1c0.1,0.4,0.6,0.7,1,0.6l0.1,0l0.2,0.6
		c-1.6,0.4-3,1.2-4.2,2.1l-0.3-0.3l0.1-0.1c0.3-0.3,0.3-0.8,0-1.2c-0.3-0.3-0.8-0.3-1.2,0l-1.3,1.3c-0.3,0.3-0.3,0.8,0,1.2
		c0.3,0.3,0.8,0.3,1.2,0l0.1-0.1l0.2,0.2c-1.1,1.2-1.9,2.6-2.5,4.1l-0.2-0.1l0-0.1c0.1-0.4-0.1-0.9-0.6-1c-0.4-0.1-0.9,0.1-1,0.6
		l-0.5,1.7c-0.1,0.4,0.1,0.9,0.6,1c0.4,0.1,0.9-0.1,1-0.6l0-0.1l0.2,0.1c-0.1,0.7-0.2,1.5-0.2,2.3c0,0.9,0.1,1.7,0.2,2.5l-0.3,0.1
		l0-0.1c-0.1-0.5-0.6-0.7-1-0.6c-0.4,0.1-0.7,0.6-0.6,1l0.5,1.7c0.1,0.4,0.6,0.7,1,0.6c0.4-0.1,0.7-0.6,0.6-1l0-0.1l0.3-0.1
		c0.5,1.5,1.4,2.9,2.5,4l-0.3,0.3l-0.1-0.1c-0.3-0.3-0.8-0.3-1.2,0c-0.3,0.3-0.3,0.8,0,1.2l1.3,1.3c0.3,0.3,0.8,0.3,1.2,0
		s0.3-0.8,0-1.2l-0.1-0.1l0.4-0.4c1.2,0.9,2.6,1.6,4.1,2.1l-0.2,0.8l-0.1,0c-0.5-0.1-0.9,0.2-1,0.6c-0.1,0.4,0.1,0.9,0.6,1l1.7,0.5
		c0.4,0.1,0.9-0.1,1-0.6c0.1-0.4-0.1-0.9-0.6-1l-0.1,0l0.2-0.9c0.7,0.1,1.4,0.2,2.1,0.2c0.8,0,1.6-0.1,2.3-0.2l0.2,0.9l-0.1,0
		c-0.4,0.1-0.7,0.6-0.6,1c0.1,0.4,0.6,0.7,1,0.6l1.7-0.5c0.4-0.1,0.7-0.6,0.6-1c-0.1-0.4-0.6-0.7-1-0.6l-0.1,0l-0.2-0.9
		c1.5-0.5,2.9-1.2,4-2.1l0.5,0.5l-0.1,0.1c-0.3,0.3-0.3,0.8,0,1.2c0.3,0.3,0.8,0.3,1.2,0l1.3-1.3c0.3-0.3,0.3-0.8,0-1.2
		c-0.3-0.3-0.8-0.3-1.2,0l-0.1,0.1l-0.4-0.4c1-1.1,1.9-2.5,2.4-4l0.5,0.1l0,0.1c-0.1,0.4,0.1,0.9,0.6,1c0.4,0.1,0.9-0.1,1-0.6
		l0.5-1.7c0.1-0.4-0.1-0.9-0.6-1c-0.4-0.1-0.9,0.1-1,0.6l0,0.1l-0.5-0.1c0.1-0.8,0.2-1.6,0.2-2.4c0-0.8-0.1-1.5-0.2-2.3L48,44L48,44
		z M26.6,46.4c0-3.7,2.3-6.9,5.5-8.3c1-0.4,2.2-0.6,3.4-0.6c5.1,0,8.9,3.7,8.9,8.8s-3.8,8.8-8.9,8.8c-2.4,0-4.5-0.8-6-2.2
		C27.7,51.3,26.6,49,26.6,46.4z"/>
    <circle cx="35.6" cy="40.2" r="0.8"/>
    <circle cx="35.6" cy="52.5" r="0.8"/>
    <circle cx="33.9" cy="48.1" r="0.8"/>
    <circle cx="37.4" cy="48.1" r="0.8"/>
    <circle cx="37.4" cy="44.6" r="0.8"/>
    <circle cx="33.9" cy="44.6" r="0.8"/>
    <circle cx="41.8" cy="46.4" r="0.8"/>
    <circle cx="29.5" cy="46.4" r="0.8"/>
    <circle cx="40" cy="42" r="0.8"/>
    <circle cx="31.3" cy="50.7" r="0.8"/>
    <circle cx="40" cy="50.7" r="0.8"/>
    <circle cx="31.3" cy="42" r="0.8"/>
    <path d="M99.2,44c0.1,0.5,0.6,0.7,1,0.6c0.4-0.1,0.7-0.6,0.6-1l-0.5-1.7c-0.1-0.4-0.6-0.7-1-0.6c-0.4,0.1-0.7,0.6-0.6,1l0,0.1
		l-0.2,0c-0.5-1.6-1.4-3-2.5-4.1l0.2-0.2l0.1,0.1c0.3,0.3,0.8,0.3,1.2,0c0.3-0.3,0.3-0.8,0-1.2l-1.3-1.3c-0.3-0.3-0.8-0.3-1.2,0
		s-0.3,0.8,0,1.2l0.1,0.1l-0.2,0.2c-1.2-0.9-2.6-1.7-4.2-2.1l0.2-0.6l0.1,0c0.5,0.1,0.9-0.2,1-0.6c0.1-0.4-0.1-0.9-0.6-1l-1.7-0.5
		c-0.4-0.1-0.9,0.1-1,0.6c-0.1,0.4,0.1,0.9,0.6,1l0.1,0L89,34.7c-0.7-0.1-1.3-0.1-2-0.1c-0.9,0-1.7,0.1-2.5,0.2L84.3,34l0.1,0
		c0.4-0.1,0.7-0.6,0.6-1c-0.1-0.4-0.6-0.7-1-0.6l-1.7,0.5c-0.4,0.1-0.7,0.6-0.6,1c0.1,0.4,0.6,0.7,1,0.6l0.1,0l0.2,0.7
		c-1.5,0.5-2.9,1.2-4,2.2l-0.5-0.5l0.1-0.1c0.3-0.3,0.3-0.8,0-1.2c-0.3-0.3-0.8-0.3-1.2,0L76,36.9c-0.3,0.3-0.3,0.8,0,1.2
		c0.3,0.3,0.8,0.3,1.2,0l0.1-0.1l0.4,0.4c-1,1.1-1.8,2.5-2.3,4l-0.6-0.2l0-0.1c0.1-0.4-0.1-0.9-0.6-1c-0.4-0.1-0.9,0.1-1,0.6
		l-0.5,1.7c-0.1,0.4,0.1,0.9,0.6,1c0.4,0.1,0.9-0.1,1-0.6l0-0.1l0.6,0.2c-0.1,0.7-0.2,1.5-0.2,2.2c0,0.8,0.1,1.6,0.2,2.4l-0.6,0.2
		l0-0.1c-0.1-0.5-0.6-0.7-1-0.6c-0.4,0.1-0.7,0.6-0.6,1l0.5,1.7c0.1,0.4,0.6,0.7,1,0.6c0.4-0.1,0.7-0.6,0.6-1l0-0.1l0.6-0.2
		c0.5,1.5,1.3,2.8,2.3,3.9l-0.5,0.5l-0.1-0.1c-0.3-0.3-0.8-0.3-1.2,0c-0.3,0.3-0.3,0.8,0,1.2l1.3,1.3c0.3,0.3,0.8,0.3,1.2,0
		s0.3-0.8,0-1.2l-0.1-0.1l0.5-0.5c1.1,0.9,2.5,1.7,4,2.1l-0.2,0.9l-0.1,0c-0.5-0.1-0.9,0.2-1,0.6c-0.1,0.4,0.1,0.9,0.6,1l1.7,0.5
		c0.4,0.1,0.9-0.1,1-0.6c0.1-0.4-0.1-0.9-0.6-1l-0.1,0l0.2-0.9c0.8,0.1,1.6,0.2,2.5,0.2c0.7,0,1.3,0,2-0.1l0.2,0.8l-0.1,0
		c-0.4,0.1-0.7,0.6-0.6,1c0.1,0.4,0.6,0.7,1,0.6l1.7-0.5c0.4-0.1,0.7-0.6,0.6-1c-0.1-0.4-0.6-0.7-1-0.6l-0.1,0l-0.2-0.8
		c1.6-0.4,3-1.1,4.2-2l0.3,0.3L95,55.9c-0.3,0.3-0.3,0.8,0,1.2c0.3,0.3,0.8,0.3,1.2,0l1.3-1.3c0.3-0.3,0.3-0.8,0-1.2
		c-0.3-0.3-0.8-0.3-1.2,0l-0.1,0.1L96,54.5c1.1-1.1,2-2.5,2.5-4.1l0.2,0.1l0,0.1c-0.1,0.4,0.1,0.9,0.6,1c0.4,0.1,0.9-0.1,1-0.6
		l0.5-1.7c0.1-0.4-0.1-0.9-0.6-1c-0.4-0.1-0.9,0.1-1,0.6l0,0.1l-0.2,0c0.2-0.8,0.2-1.6,0.2-2.5c0-0.8-0.1-1.6-0.2-2.4L99.2,44
		L99.2,44z M87,55.1c-5.2,0-9-3.7-9-8.8s3.8-8.8,9-8.8c0.9,0,1.7,0.1,2.5,0.3c3.6,1.2,6.3,4.6,6.3,8.6c0,3.1-1.6,5.8-3.9,7.4
		C90.5,54.7,88.8,55.1,87,55.1z"/>
    <circle cx="86.7" cy="40.2" r="0.8"/>
    <circle cx="86.7" cy="52.5" r="0.8"/>
    <circle cx="85" cy="48.1" r="0.8"/>
    <circle cx="88.5" cy="48.1" r="0.8"/>
    <circle cx="88.5" cy="44.6" r="0.8"/>
    <circle cx="85" cy="44.6" r="0.8"/>
    <circle cx="92.9" cy="46.4" r="0.8"/>
    <circle cx="80.6" cy="46.4" r="0.8"/>
    <circle cx="91.1" cy="42" r="0.8"/>
    <circle cx="82.4" cy="50.7" r="0.8"/>
    <circle cx="91.1" cy="50.7" r="0.8"/>
    <circle cx="82.4" cy="42" r="0.8"/>
</g>
  <g>
	<path d="M0.2,0.3h10.5c7.8,0,13.1,4.8,13.1,12c0,7.2-5.3,12-13.1,12H0.2V0.3z M10.5,20.6c5.4,0,8.8-3.3,8.8-8.2
		c0-5-3.5-8.2-8.8-8.2H4.7v16.5H10.5z"/>
    <path d="M43.9,18.8h-12l-2.4,5.6h-4.6L35.7,0.3h4.4l10.9,24.1h-4.7L43.9,18.8z M42.4,15.3L37.9,4.8l-4.5,10.5H42.4z"/>
    <path d="M57.7,4.1h-8V0.3h20.4v3.8h-8v20.3h-4.5V4.1z"/>
    <path d="M71.4,12.4c0-7.1,5.5-12.4,13-12.4s13,5.2,13,12.4s-5.5,12.4-13,12.4S71.4,19.5,71.4,12.4z M92.8,12.4
		c0-4.9-3.6-8.5-8.5-8.5s-8.5,3.5-8.5,8.5c0,4.9,3.6,8.5,8.5,8.5S92.8,17.3,92.8,12.4z"/>
    <path d="M100,21.9l1.5-3.5c1.9,1.5,5,2.6,7.9,2.6c3.7,0,5.3-1.3,5.3-3.1c0-5.2-14.3-1.8-14.3-10.7c0-3.9,3.1-7.2,9.7-7.2
		c2.9,0,5.9,0.8,8,2.1l-1.4,3.5c-2.2-1.3-4.5-1.9-6.6-1.9c-3.7,0-5.2,1.4-5.2,3.3c0,5.1,14.3,1.8,14.3,10.6c0,3.8-3.1,7.1-9.7,7.1
		C105.8,24.7,102,23.6,100,21.9z"/>
</g>
</svg>
