<svg width="850" height="850" xmlns="http://www.w3.org/2000/svg" xmlns:svg="http://www.w3.org/2000/svg" clip-rule="evenodd" fill-rule="evenodd" version="1.1">
 <g class="layer">
  <title>Layer 1</title>
  <metadata id="CorelCorpID_0Corel-Layer"/>
  <g id="svg_17">
   <polygon class="fil1" fill="#ffffff" id="svg_15" points="227,6 623,6 623,227 844,227 844,623 623,623 623,845 227,845 227,623 6,623 6,227 138,227 138,228 141,227 284,373 284,452 125,291 69,291 69,560 290,560 290,781 560,781 560,560 781,560 781,291 560,291 560,69 290,69 290,192 227,128 "/>
   <polygon class="fil1" fill="#ffffff" id="svg_16" points="484,445 484,524 222,257 222,178 "/>
  </g>
 </g>
</svg>